<svg width="256" height="256" viewBox="0 0 256 256" fill="none" xmlns="http://www.w3.org/2000/svg">
  <rect x="20" y="20" width="216" height="216" rx="48" fill="#FFF8F1"/>
  <rect x="20" y="20" width="216" height="216" rx="48" stroke="#E8D9CB" stroke-width="8"/>
  <path d="M78 126C78 98.3858 100.386 76 128 76C155.614 76 178 98.3858 178 126V132C178 155.196 159.196 174 136 174H120C96.804 174 78 155.196 78 132V126Z" stroke="#2A2622" stroke-width="12" stroke-linecap="round" stroke-linejoin="round"/>
  <path d="M68 128H188" stroke="#AF4F36" stroke-width="10" stroke-linecap="round"/>
  <path d="M96 174L88 192" stroke="#2A2622" stroke-width="12" stroke-linecap="round"/>
  <path d="M160 174L168 192" stroke="#2A2622" stroke-width="12" stroke-linecap="round"/>
  <path d="M166 62L146 106" stroke="#2A2622" stroke-width="10" stroke-linecap="round"/>
  <path d="M186 62L166 106" stroke="#2A2622" stroke-width="10" stroke-linecap="round"/>
  <circle cx="114" cy="118" r="8" fill="#AF4F36"/>
  <circle cx="142" cy="108" r="8" fill="#AF4F36"/>
</svg>
