<svg width="256" height="256" viewBox="0 0 256 256" fill="none" xmlns="http://www.w3.org/2000/svg">
  <rect x="20" y="20" width="216" height="216" rx="48" fill="#F6FBFA"/>
  <rect x="20" y="20" width="216" height="216" rx="48" stroke="#D7E8E4" stroke-width="8"/>
  <path d="M74 82C74 72.0589 82.0589 64 92 64H156C165.941 64 174 72.0589 174 82V188C174 178.059 165.941 170 156 170H92C82.0589 170 74 178.059 74 188V82Z" stroke="#23403E" stroke-width="12" stroke-linejoin="round"/>
  <path d="M174 82C174 72.0589 182.059 64 192 64V170C182.059 170 174 178.059 174 188V82Z" fill="#23403E"/>
  <path d="M104 102H146" stroke="#23403E" stroke-width="10" stroke-linecap="round"/>
  <path d="M104 126H146" stroke="#5D8D87" stroke-width="10" stroke-linecap="round"/>
  <path d="M104 150H134" stroke="#9FC1BA" stroke-width="10" stroke-linecap="round"/>
  <path d="M90 84V184" stroke="#23403E" stroke-width="10" stroke-linecap="round"/>
</svg>
