<svg width="256" height="256" viewBox="0 0 256 256" fill="none" xmlns="http://www.w3.org/2000/svg">
  <rect x="20" y="20" width="216" height="216" rx="48" fill="#F6F7FC"/>
  <rect x="20" y="20" width="216" height="216" rx="48" stroke="#D9DDF0" stroke-width="8"/>
  <path d="M128 72H100C84.536 72 72 84.536 72 100V114C72 129.464 84.536 142 100 142H136C143.732 142 150 148.268 150 156V164C150 171.732 143.732 178 136 178H96" stroke="#26324A" stroke-width="12" stroke-linecap="round" stroke-linejoin="round"/>
  <path d="M128 184H156C171.464 184 184 171.464 184 156V142C184 126.536 171.464 114 156 114H120C112.268 114 106 107.732 106 100V92C106 84.268 112.268 78 120 78H160" stroke="#4C67A8" stroke-width="12" stroke-linecap="round" stroke-linejoin="round"/>
  <circle cx="108" cy="104" r="8" fill="#4C67A8"/>
  <circle cx="148" cy="152" r="8" fill="#26324A"/>
  <path d="M98 178H118" stroke="#26324A" stroke-width="12" stroke-linecap="round"/>
  <path d="M138 78H158" stroke="#4C67A8" stroke-width="12" stroke-linecap="round"/>
</svg>
